<?xml version="1.0" encoding="utf-8"?>
<svg version="1.1" xmlns="http://www.w3.org/2000/svg" xmlns:xlink="http://www.w3.org/1999/xlink" x="0px" y="0px" width="100px" height="100px" viewBox="0 0 100 100"
	 overflow="visible" enable-background="new 0 0 100 100">
<defs>
	<symbol id="patternplate" viewBox="0 0 100 100">
		<title>patternplate</title>
  	<desc>patternplate logo</desc>
		<rect x="33.666" y="60.667" width="10" height="10"/>
		<rect x="46.666" y="60.667" width="10" height="10"/>
		<rect x="59.666" y="60.667" width="10" height="10"/>
		<rect x="20.666" y="47.667" width="10" height="10"/>
		<rect x="33.666" y="47.667" width="10" height="10"/>
		<rect x="46.666" y="47.667" width="10" height="10"/>
		<rect x="59.666" y="47.667" width="10" height="10"/>
		<rect x="20.666" y="34.667" width="10" height="10"/>
		<rect x="33.666" y="34.667" width="10" height="10"/>
		<rect x="46.666" y="34.667" width="10" height="10"/>
		<rect x="59.666" y="34.667" width="10" height="10"/>
		<rect x="20.666" y="21.667" width="10" height="10"/>
		<rect x="33.666" y="21.667" width="10" height="10"/>
		<rect x="46.666" y="21.667" width="10" height="10"/>
		<rect x="59.666" y="21.667" width="10" height="10"/>
		<rect x="20.666" y="60.667" width="10" height="10"/>
		<rect x="33.666" y="60.667" width="10" height="10"/>
		<rect x="46.666" y="60.667" width="10" height="10"/>
		<rect x="59.666" y="60.667" width="10" height="10"/>
		<rect x="20.666" y="47.667" width="10" height="10"/>
		<rect x="33.666" y="47.667" width="10" height="10"/>
		<rect x="46.666" y="47.667" width="10" height="10"/>
		<rect x="59.666" y="47.667" width="10" height="10"/>
		<rect x="20.666" y="34.667" width="10" height="10"/>
		<rect x="33.666" y="34.667" width="10" height="10"/>
		<rect x="46.666" y="34.667" width="10" height="10"/>
		<rect x="59.666" y="34.667" width="10" height="10"/>
		<rect x="20.666" y="21.667" width="10" height="10"/>
		<rect x="33.666" y="21.667" width="10" height="10"/>
		<rect x="46.666" y="21.667" width="10" height="10"/>
		<rect x="59.666" y="21.667" width="10" height="10"/>
		<rect x="20.666" y="60.667" width="10" height="10"/>
		<rect x="33.666" y="60.667" width="10" height="10"/>
		<rect x="46.666" y="60.667" width="10" height="10"/>
		<rect x="59.666" y="60.667" width="10" height="10"/>
		<rect x="20.666" y="47.667" width="10" height="10"/>
		<rect x="33.666" y="47.667" width="10" height="10"/>
		<rect x="46.666" y="47.667" width="10" height="10"/>
		<rect x="59.666" y="47.667" width="10" height="10"/>
		<rect x="20.666" y="34.667" width="10" height="10"/>
		<rect x="33.666" y="34.667" width="10" height="10"/>
		<rect x="46.666" y="34.667" width="10" height="10"/>
		<rect x="59.666" y="34.667" width="10" height="10"/>
		<rect x="20.666" y="21.667" width="10" height="10"/>
		<rect x="33.666" y="21.667" width="10" height="10"/>
		<rect x="46.666" y="21.667" width="10" height="10"/>
		<rect x="59.666" y="21.667" width="10" height="10"/>
		<rect x="20.666" y="60.667" width="10" height="10"/>
		<rect x="33.666" y="60.667" width="10" height="10"/>
		<rect x="46.666" y="60.667" width="10" height="10"/>
		<rect x="59.666" y="60.667" width="10" height="10"/>
		<rect x="20.666" y="47.667" width="10" height="10"/>
		<rect x="33.666" y="47.667" width="10" height="10"/>
		<rect x="46.666" y="47.667" width="10" height="10"/>
		<rect x="59.666" y="47.667" width="10" height="10"/>
		<rect x="20.666" y="34.667" width="10" height="10"/>
		<rect x="33.666" y="34.667" width="10" height="10"/>
		<rect x="46.666" y="34.667" width="10" height="10"/>
		<rect x="59.666" y="34.667" width="10" height="10"/>
		<rect x="20.666" y="21.667" width="10" height="10"/>
		<rect x="33.666" y="21.667" width="10" height="10"/>
		<rect x="46.666" y="21.667" width="10" height="10"/>
		<rect x="59.666" y="21.667" width="10" height="10"/>
		<rect x="20.666" y="60.667" width="10" height="10"/>
	</symbol>
	<symbol id="dark" viewBox="0 0 100 100">
		<path d="M45.667,21.077c-13.558,0-24.59,11.032-24.59,24.591c0,13.557,11.032,24.589,24.59,24.589
			s24.589-11.032,24.589-24.589C70.256,32.109,59.225,21.077,45.667,21.077z M28.103,45.668c0-9.193,7.062-16.723,16.056-17.489
			l1.369,35.046C35.89,63.149,28.103,55.322,28.103,45.668z"/>
	</symbol>
	<symbol id="light" viewBox="0 0 100 100">
		<path d="M45.667,21.077c-13.558,0-24.59,11.032-24.59,24.591c0,13.557,11.032,24.589,24.59,24.589s24.589-11.032,24.589-24.589
		C70.256,32.109,59.225,21.077,45.667,21.077z M45.667,63.232c-9.702,0-17.564-7.863-17.564-17.564
		c0-9.703,7.862-17.565,17.564-17.565c9.7,0,17.565,7.862,17.565,17.565C63.232,55.369,55.367,63.232,45.667,63.232z M45.667,14.052
		c1.938,0,3.513-1.574,3.513-3.513V3.514C49.18,1.574,47.605,0,45.667,0c-1.939,0-3.514,1.574-3.514,3.514v7.025
		C42.153,12.478,43.728,14.052,45.667,14.052z M45.667,77.282c-1.939,0-3.514,1.574-3.514,3.513v7.026
		c0,1.939,1.574,3.513,3.514,3.513c1.938,0,3.513-1.573,3.513-3.513v-7.026C49.18,78.856,47.605,77.282,45.667,77.282z M72.988,23.31
		l4.967-4.968c1.371-1.372,1.371-3.595,0-4.967c-1.373-1.372-3.596-1.372-4.967,0l-4.969,4.967c-1.373,1.374-1.373,3.596,0,4.968
		C69.393,24.682,71.615,24.682,72.988,23.31z M18.346,68.025l-4.967,4.967c-1.372,1.372-1.372,3.595,0,4.968s3.595,1.373,4.967,0
		l4.968-4.968c1.372-1.377,1.372-3.595,0-4.967C21.941,66.652,19.718,66.649,18.346,68.025z M14.051,45.668
		c0-1.94-1.573-3.514-3.513-3.514H3.513C1.573,42.154,0,43.728,0,45.668c0,1.938,1.573,3.513,3.513,3.513h7.025
		C12.478,49.181,14.051,47.606,14.051,45.668z M87.82,42.154h-7.025c-1.939,0-3.514,1.574-3.514,3.514
		c0,1.938,1.574,3.513,3.514,3.513h7.025c1.939,0,3.512-1.574,3.512-3.513C91.332,43.728,89.76,42.154,87.82,42.154z M18.341,23.31
		c1.373,1.373,3.596,1.373,4.968,0c1.373-1.372,1.373-3.594,0-4.968l-4.968-4.967c-1.372-1.372-3.595-1.372-4.967,0
		c-1.372,1.372-1.372,3.595,0,4.967L18.341,23.31z M72.992,68.021c-1.377-1.371-3.596-1.371-4.967,0
		c-1.373,1.372-1.379,3.595,0,4.967l4.967,4.968c1.371,1.372,3.596,1.372,4.967,0c1.373-1.372,1.373-3.595,0-4.968L72.992,68.021z"/>
	</symbol>
	<symbol id="atoms" viewBox="0 0 100 100">
		<path d="M45.667,21.077c-13.784,0-25.001,11.032-25.001,24.591c0,13.557,11.217,24.589,25.001,24.589
		s24.999-11.032,24.999-24.589C70.666,32.109,59.451,21.077,45.667,21.077z"/>
	</symbol>
	<symbol id="molecules" viewBox="0 0 100 100">
		<path d="M73.14,0.667c-10.767,0-19.527,8.761-19.527,19.528c0,0.604,0.037,1.199,0.091,1.79l-10.095,1.294
		C41.711,13.513,33.104,6.112,22.792,6.112c-11.697,0-21.215,9.518-21.215,21.216c0,11.695,9.518,21.214,21.215,21.214
		c2.759,0,5.389-0.546,7.81-1.509l4.625,8.69c-5.178,3.516-8.588,9.45-8.588,16.166c0,10.767,8.761,19.527,19.527,19.527
		c10.767,0,19.527-8.761,19.527-19.527s-8.76-19.527-19.527-19.527c-2.269,0-4.438,0.409-6.466,1.124l-4.704-8.837
		c5.197-3.673,8.66-9.615,8.961-16.374l10.859-1.393c2.739,7.478,9.907,12.839,18.322,12.839c10.767,0,19.526-8.761,19.526-19.527
		C92.666,9.428,83.906,0.667,73.14,0.667z M60.115,71.89c0,7.705-6.246,13.949-13.949,13.949c-7.705,0-13.948-6.244-13.948-13.949
		c0-7.703,6.243-13.948,13.948-13.948C53.869,57.941,60.115,64.187,60.115,71.89z M22.792,42.481
		c-8.371,0-15.154-6.784-15.154-15.153c0-8.371,6.783-15.155,15.154-15.155c8.369,0,15.154,6.784,15.154,15.155
		C37.946,35.697,31.161,42.481,22.792,42.481z M73.14,34.144c-7.705,0-13.948-6.244-13.948-13.949
		c0-7.704,6.243-13.949,13.948-13.949c7.703,0,13.948,6.245,13.948,13.949C87.088,27.899,80.843,34.144,73.14,34.144z"/>
	</symbol>
	<symbol id="polymers" viewBox="0 0 100 100">
		<path d="M75.587,1.59c-5.842,0-10.595,4.753-10.595,10.595c0,0.328,0.021,0.651,0.049,0.971l-5.477,0.702
			c-1.029-5.299-5.7-9.314-11.295-9.314c-6.346,0-11.51,5.164-11.51,11.511c0,6.345,5.164,11.51,11.51,11.51
			c1.498,0,2.925-0.296,4.237-0.818l2.51,4.715c-2.81,1.908-4.659,5.127-4.659,8.771c0,0.649,0.067,1.281,0.18,1.898l-4.436,1.471
			c-3.955-4.099-10.447-4.735-15.139-1.249c-5.093,3.785-6.157,11.01-2.372,16.104c0.894,1.203,1.982,2.171,3.184,2.913l-2.287,4.826
			c-3.208-1.116-6.895-0.681-9.819,1.493C14.98,71.175,14,77.825,17.484,82.515c3.485,4.688,10.135,5.666,14.824,2.182
			c4.688-3.484,5.668-10.135,2.184-14.822c-0.734-0.988-1.614-1.801-2.583-2.451l2.326-4.91c3.281,1.076,6.99,0.66,10.031-1.396
			l4.121,4.279c-2.37,3.611-2.384,8.469,0.339,12.133c3.484,4.689,10.135,5.668,14.823,2.184s5.669-10.135,2.184-14.823
			c-3.484-4.688-10.135-5.668-14.823-2.183c-0.263,0.195-0.51,0.404-0.75,0.618l-3.831-3.978c3.269-3.581,3.943-8.899,1.629-13.199
			l3.532-1.171c1.744,3.464,5.325,5.853,9.461,5.853c5.842,0,10.595-4.753,10.595-10.595s-4.753-10.595-10.595-10.595
			c-1.23,0-2.408,0.222-3.508,0.61l-2.553-4.794c2.82-1.993,4.699-5.217,4.862-8.884l5.893-0.755c1.485,4.057,5.375,6.966,9.94,6.966
			c5.842,0,10.595-4.753,10.595-10.595C86.182,6.344,81.429,1.59,75.587,1.59z M52.716,65.136c3.355-2.494,8.095-1.797,10.589,1.559
			c2.493,3.355,1.795,8.096-1.561,10.59c-3.354,2.492-8.096,1.795-10.589-1.561S49.361,67.629,52.716,65.136z M32.062,71.68
			c2.493,3.354,1.795,8.095-1.559,10.589c-3.356,2.494-8.096,1.795-10.589-1.561c-2.494-3.355-1.795-8.094,1.561-10.588
			C24.83,67.626,29.569,68.324,32.062,71.68z M42.733,58.192c-3.645,2.708-8.795,1.949-11.504-1.695
			c-2.708-3.645-1.95-8.795,1.695-11.504c3.646-2.708,8.795-1.95,11.504,1.694C47.137,50.333,46.379,55.483,42.733,58.192z
			 M60.952,32.666c4.18,0,7.568,3.388,7.568,7.568c0,4.181-3.389,7.568-7.568,7.568c-4.181,0-7.567-3.387-7.567-7.568
			C53.385,36.054,56.771,32.666,60.952,32.666z M48.27,24.278c-4.541,0-8.222-3.681-8.222-8.222c0-4.542,3.681-8.223,8.222-8.223
			s8.223,3.681,8.223,8.223C56.492,20.597,52.811,24.278,48.27,24.278z M75.587,19.754c-4.181,0-7.567-3.388-7.567-7.568
			s3.387-7.568,7.567-7.568c4.18,0,7.568,3.388,7.568,7.568S79.767,19.754,75.587,19.754z"/>
	</symbol>
	<symbol id="organisms" viewBox="0 0 100 100">
		<path d="M45.84,54.369c-3.136-3.537-8.52-3.906-11.998-0.819c-3.479,3.084-3.758,8.471-0.622,12.008
		c3.135,3.538,8.518,3.905,11.998,0.821C48.696,63.294,48.975,57.906,45.84,54.369z M44.688,9.198
		c-20.909,0-37.924,17.015-37.924,37.924c0,20.908,17.015,37.924,37.924,37.924c20.908,0,37.922-17.016,37.922-37.924
		C82.61,26.212,65.597,9.198,44.688,9.198z M44.688,74.211c-14.963,0-27.089-12.127-27.089-27.089
		c0-14.963,12.125-27.089,27.089-27.089c14.96,0,27.091,12.126,27.091,27.089C71.779,62.084,59.648,74.211,44.688,74.211z"/>
	</symbol>
	<symbol id="ecospheres" viewBox="0 0 100 100">
		<path d="M45.667,10.667c-19.297,0-35,15.703-35,35.002c0,19.296,15.704,34.998,35,34.998
			c19.297,0,35-15.702,35-34.998C80.666,26.37,64.964,10.667,45.667,10.667z M45.667,70.67c-13.81,0-25-11.192-25-25.001
			c0-13.811,11.191-25.002,25-25.002c13.807,0,25.002,11.191,25.002,25.002C70.669,59.478,59.474,70.67,45.667,70.67z"/>
	</symbol>
</defs>
</svg>
