<svg version="1.1" xmlns="http://www.w3.org/2000/svg" xmlns:xlink="http://www.w3.org/1999/xlink" viewBox="0 0 32 32">
	<symbol id="globals" vieBox="0 0 32 32">
		<path fill="#1A171B" d="M8.29 2h-2V0h2v2zm3.14-2h-2v2h2V0zm3.14 0h-2v2h2V0zm3.14 0h-2v2h2V0zM5.14 3.14h-2v2h2v-2zm3.15 0h-2v2h2v-2zm3.14 0h-2v2h2v-2zm3.14 0h-2v2h2v-2zm3.14 0h-2v2h2v-2zm3.15 0h-2v2h2v-2zM2 6.29H0v2h2v-2zm3.14 0h-2v2h2v-2zm3.15 0h-2v2h2v-2zm3.14 0h-2v2h2v-2zm3.14 0h-2v2h2v-2zm3.14 0h-2v2h2v-2zm3.15 0h-2v2h2v-2zm3.14 0h-2v2h2v-2zM2 9.43H0v2h2v-2zm3.14 0h-2v2h2v-2zm3.15 0h-2v2h2v-2zm3.14 0h-2v2h2v-2zm3.14 0h-2v2h2v-2zm3.14 0h-2v2h2v-2zm3.15 0h-2v2h2v-2zm3.14 0h-2v2h2v-2zM2 12.57H0v2h2v-2zm3.14 0h-2v2h2v-2zm3.15 0h-2v2h2v-2zm3.14 0h-2v2h2v-2zm3.14 0h-2v2h2v-2zm3.14 0h-2v2h2v-2zm3.15 0h-2v2h2v-2zm3.14 0h-2v2h2v-2zM2 15.71H0v2h2v-2zm3.14 0h-2v2h2v-2zm3.15 0h-2v2h2v-2zm3.14 0h-2v2h2v-2zm3.14 0h-2v2h2v-2zm3.14 0h-2v2h2v-2zm3.15 0h-2v2h2v-2zm3.14 0h-2v2h2v-2zM5.14 18.86h-2v2h2v-2zm3.15 0h-2v2h2v-2zm3.14 0h-2v2h2v-2zm3.14 0h-2v2h2v-2zm3.14 0h-2v2h2v-2zm3.15 0h-2v2h2v-2zM8.29 22h-2v2h2v-2zm3.14 0h-2v2h2v-2zm3.14 0h-2v2h2v-2zm3.14 0h-2v2h2v-2z"/>
	</symbol>
	<symbol id="atoms" viewBox="0 0 32 32">
		<path d="M12 12h8v8H12z" />
	</symbol>
	<symbol id="molecules" viewBox="0 0 32 32">
		<path d="M15 15H8V8h7v7zm9-7h-7v7h7V8zm-9 9H8v7h7v-7z" />
	</symbol>
	<symbol id="polymers" viewBox="0 0 32 32">
		<path d="M10.67 10.67H4V4h6.67v6.67zM19.33 4h-6.67v6.67h6.67V4zm-8.66 8.67H4v6.67h6.67v-6.67zM21.33 28H28v-6.67h-6.67V28zm-8.66 0h6.67v-6.67h-6.67V28zm8.66-8.67H28v-6.67h-6.67v6.67z" />
	</symbol>
	<symbol id="organisms" viewBox="0 0 32 32">
		<path d="M26 6v20H6V6h20m2-2H4v24h24V4z" />
		<path d="M12.5 17h7v7h-7z" />
	</symbol>
	<symbol id="ecospheres" viewBox="0 0 32 32">
		<path d="M26 6v20H6V6h20m2-2H4v24h24V4z" />
	</symbol>
	<symbol id="home" viewBox="0 0 32 32">
		<path d="M16 1L1 15h3v13h8.5v-9h7v9H28V15h3z" />
	</symbol>
	<symbol id="patternplate" viewBox="0 0 32 32">
		<path fill="#29A8DE" d="M17 17h4.5v4.5H17z" />
		<path d="M8.5 8.5H4V4h4.5v4.5zM15 4h-4.5v4.5H15V4zm6.5 0H17v4.5h4.5V4zM28 4h-4.5v4.5H28V4zM8.5 10.5H4V15h4.5v-4.5zm6.5 0h-4.5V15H15v-4.5zm6.5 0H17V15h4.5v-4.5zm6.5 0h-4.5V15H28v-4.5zM8.5 17H4v4.5h4.5V17zm6.5 0h-4.5v4.5H15V17zm13 0h-4.5v4.5H28V17zM8.5 23.5H4V28h4.5v-4.5zm6.5 0h-4.5V28H15v-4.5zm6.5 0H17V28h4.5v-4.5zm6.5 0h-4.5V28H28v-4.5z">
			<animate attributeName="fill" values="#3C606D; #29A8DE; #3C606D" dur="3s" repeatCount="indefinite" />
		</path>
	</symbol>
	<symbol id="dark" viewBox="0 0 32 32">
		<path d="M16 22c-3.31 0-6-2.69-6-6s2.69-6 6-6m0-2c-4.42 0-8 3.58-8 8s3.58 8 8 8 8-3.58 8-8-3.58-8-8-8z" />
	</symbol>
	<symbol id="light" viewBox="0 0 32 32">
		<path d="M16 10c3.31 0 6 2.69 6 6s-2.69 6-6 6-6-2.69-6-6 2.69-6 6-6m0-2c-4.42 0-8 3.58-8 8s3.58 8 8 8 8-3.58 8-8-3.58-8-8-8zm1-2h-2V2h2v4zm0 20h-2v4h2v-4zM6 15v2H2v-2h4zm20 0v2h4v-2h-4zM8.22 22.36l1.41 1.41L6.8 26.6l-1.41-1.41 2.83-2.83zM22.36 8.22l1.41 1.41L26.6 6.8l-1.41-1.41-2.83 2.83zm-12.72 0L8.22 9.64 5.39 6.81 6.8 5.4l2.84 2.82zm14.14 14.14l-1.41 1.41 2.83 2.83 1.41-1.41-2.83-2.83z" />
	</symbol>
	<symbol id="fullscreen" viewBox="0 0 32 32">
		<path d="M19 4h9v9h-2V7.41L20.41 13 19 11.59 24.59 6H19zm-6 24H4v-9h2v5.59L11.59 19 13 20.41 7.41 26H13z" />
	</symbol>
	<symbol id="arrow-double-left" viewBox="0 0 32 32">
	<path d="M14.88 20l-4-4 4-4 1.41 1.41L13.71 16l2.59 2.59L14.88 20zm6.24-1.41L18.54 16l2.59-2.59L19.71 12l-4 4 4 4 1.41-1.41z"/>
  </symbol>
  <symbol id="arrow-double-right" viewBox="0 0 32 32">
	<path d="M15.71 18.59L18.29 16l-2.59-2.59L17.12 12l4 4-4 4-1.41-1.41zM12.29 20l4-4-4-4-1.41 1.41L13.46 16l-2.59 2.59L12.29 20z"/>
  </symbol>
</svg>
