<svg version="1.1" xmlns="http://www.w3.org/2000/svg" xmlns:xlink="http://www.w3.org/1999/xlink" x="0px" y="0px" width="100px" height="100px" viewBox="0 0 100 100"
	 overflow="visible" enable-background="new 0 0 100 100">
	<defs>
		<symbol id="patternplate" viewBox="0 0 100 100">
			<rect x="20.666" y="21.667" width="10" height="10"/>
			<rect x="33.666" y="21.667" width="10" height="10"/>
			<rect x="46.666" y="21.667" width="10" height="10"/>
			<rect x="59.666" y="21.667" width="10" height="10"/>


			<rect x="20.666" y="34.667" width="10" height="10"/>
			<rect x="33.666" y="34.667" width="10" height="10"/>
			<rect x="46.666" y="34.667" width="10" height="10"/>
			<rect x="59.666" y="34.667" width="10" height="10"/>

			<rect x="20.666" y="47.667" width="10" height="10"/>
			<rect x="33.666" y="47.667" width="10" height="10"/>
			<rect x="46.666" y="47.667" width="10" height="10" style="fill: currentcolor" class="led" />
			<rect x="46.666" y="47.667" width="10" height="10" fill-opacity="0" class="led-glow" >
				<animate
					attributeName="fill-opacity"
					values="0; 0.7; 0"
					dur="3s"
					repeatCount="indefinite" />
			</rect>
			<rect x="59.666" y="47.667" width="10" height="10"/>

			<rect x="20.666" y="60.667" width="10" height="10"/>
			<rect x="33.666" y="60.667" width="10" height="10"/>
			<rect x="46.666" y="60.667" width="10" height="10"/>
			<rect x="59.666" y="60.667" width="10" height="10"/>
		</symbol>

		<symbol id="patternplate-loading" viewBox="0 0 100 100">
			<rect x="20.666" y="21.667" width="10" height="10">
				<animate
					id="last"
					attributeName="y"
					from="-10"
					to="21.667"
					dur=".24s"
					repeatCount="1"
					begin="first.begin + .36s" />
			</rect>
			<rect x="33.666" y="21.667" width="10" height="10">
				<animate
					attributeName="y"
					from="-10"
					to="21.667"
					dur=".24s"
					repeatCount="1"
					begin="first.begin + .38s" />
			</rect>
			<rect x="46.666" y="21.667" width="10" height="10">
				<animate
					id="last"
					attributeName="y"
					from="-10"
					to="21.667"
					dur=".24s"
					repeatCount="1"
					begin="first.begin + .5s" />
			</rect>
			<rect x="59.666" y="21.667" width="10" height="10">
				<animate
					attributeName="y"
					from="-10"
					to="21.667"
					dur=".24s"
					repeatCount="1"
					begin="first.begin + .37s" />
			</rect>


			<rect x="20.666" y="34.667" width="10" height="10">
				<animate
					attributeName="y"
					from="-10"
					to="34.667"
					dur=".24s"
					repeatCount="1"
					begin="first.begin + .36s" />
			</rect>
			<rect x="33.666" y="34.667" width="10" height="10">
				<animate
					attributeName="y"
					from="-10"
					to="34.667"
					dur=".24s"
					repeatCount="1"
					begin="first.begin + .29s" />
			</rect>
			<rect x="46.666" y="34.667" width="10" height="10">
				<animate
					attributeName="y"
					from="-10"
					to="34.667"
					dur=".24s"
					repeatCount="1"
					begin="first.begin + .34s" />
			</rect>
			<rect x="59.666" y="34.667" width="10" height="10">
				<animate
					attributeName="y"
					from="-10"
					to="34.667"
					dur=".24s"
					repeatCount="1"
					begin="first.begin + .24s" />
			</rect>

			<rect x="20.666" y="47.667" width="10" height="10">
				<animate
					attributeName="y"
					from="-10"
					to="47.667"
					dur=".24s"
					repeatCount="1"
					begin="first.begin + .19s" />
			</rect>
			<rect x="33.666" y="47.667" width="10" height="10">
				<animate
					attributeName="y"
					from="-10"
					to="47.667"
					dur=".24s"
					repeatCount="1"
					begin="first.begin + .125s" />
			</rect>
			<rect x="46.666" y="47.667" width="10" height="10" style="fill: currentcolor" class="led" />
			<rect x="46.666" y="47.667" width="10" height="10" fill-opacity="0" class="led-glow" >
				<animate
					attributeName="fill-opacity"
					values="0; 0.7; 0"
					dur="3s"
					repeatCount="indefinite" />
			</rect>
			<rect x="59.666" y="47.667" width="10" height="10"/>

			<rect x="59.666" y="47.667" width="10" height="10">
				<animate
					attributeName="y"
					from="-10"
					to="47.667"
					dur=".24s"
					repeatCount="1"
					begin="first.begin + .1s" />
			</rect>

			<rect x="20.666" y="60.667" width="10" height="10">
				<animate
					attributeName="y"
					from="-10"
					to="60.667"
					dur=".24s"
					repeatCount="1"
					begin="first.begin + .05s" />
			</rect>
			<rect x="33.666" y="60.667" width="10" height="10">
				<animate
					attributeName="y"
					from="-10"
					to="60.667"
					dur=".24s"
					repeatCount="1"
					begin="first.begin + .15s" />
			</rect>
			<rect x="46.666" y="60.667" width="10" height="10">
				<animate
					attributeName="y"
					from="-10"
					to="60.667"
					dur=".24s"
					repeatCount="1"
					fill="freeze"
					begin="first.begin + .1s"/>
			</rect>
			<rect x="59.666" y="60.667" width="10" height="10">
				<animate
					id="first"
					attributeName="y"
					from="-10"
					to="60.667"
					dur=".24s"
					begin="0s; last.end + 3s"
					repeatCount="1" />
			</rect>
		</symbol>
	</defs>
</svg>
