<svg version="1.1" xmlns="http://www.w3.org/2000/svg" xmlns:xlink="http://www.w3.org/1999/xlink" x="0px" y="0px" width="100px" height="100px" viewBox="0 0 100 100"
	 overflow="visible" enable-background="new 0 0 100 100">
	<defs>
		<symbol id="patternplate" viewBox="0 0 32 32">
			<path fill-rule="evenodd" d="M14 7h4v4h-4V7zm2 25c8.837 0 16-7.163 16-16S24.837 0 16 0 0 7.163 0 16s7.163 16 16 16zM9 7h4v4H9V7zm0 5h4v4H9v-4zm0 5h4v4H9v-4zM19 7h4v4h-4V7zm0 5h4v4h-4v-4zm0 5h4v4h-4v-4zm-5 0h4v4h-4v-4zm-5 5h4v4H9v-4z"/>
		</symbol>
		<symbol id="patternplate-loading" viewBox="0 0 32 32">
			<path fill-rule="evenodd" d="M14 7h4v4h-4V7zm2 25c8.837 0 16-7.163 16-16S24.837 0 16 0 0 7.163 0 16s7.163 16 16 16zM9 7h4v4H9V7zm0 5h4v4H9v-4zm0 5h4v4H9v-4zM19 7h4v4h-4V7zm0 5h4v4h-4v-4zm0 5h4v4h-4v-4zm-5 0h4v4h-4v-4zm-5 5h4v4H9v-4z"/>
		</symbol>
	</defs>
</svg>
